<svg version="1.1" xmlns="http://www.w3.org/2000/svg" xmlns:xlink="http://www.w3.org/1999/xlink" width="1358" height="541"><defs/><g transform="translate(0,0)"><g><rect fill="#FFFFFF" stroke="none" x="0" y="0" width="1358" height="541"/></g><g transform="translate(0,0) matrix(1,0,0,1,50,60)"><g><g transform="translate(0,0) scale(4.1,0.3)"><g><path fill="#fff2cc" stroke="none" d="M 0 0 L 100 0 Q 100 0 100 0 L 100 100 Q 100 100 100 100 L 0 100 Q 0 100 0 100 L 0 0 Q 0 0 0 0 Z"/><g transform="scale(0.24390243902439027,3.3333333333333335)"><path fill="none" stroke="none" d="M 0 0 L 409.99999999999994 0 Q 409.99999999999994 0 409.99999999999994 0 L 409.99999999999994 30 Q 409.99999999999994 30 409.99999999999994 30 L 0 30 Q 0 30 0 30 L 0 0 Q 0 0 0 0 Z"/><path fill="none" stroke="#990000" d="M 0 0 M 0 0 L 409.99999999999994 0 Q 409.99999999999994 0 409.99999999999994 0 L 409.99999999999994 30 Q 409.99999999999994 30 409.99999999999994 30 L 0 30 Q 0 30 0 30 L 0 0 Q 0 0 0 0 Z" stroke-miterlimit="10" stroke-width="2"/></g></g></g></g></g><g transform="scale(1,1) matrix(1,0,0,1,50,60) translate(8,8)"><text fill="#000000" stroke="none" font-family="Arial" font-size="12px" font-style="normal" font-weight="bold" text-decoration="none" x="166" y="11">Flyselskap</text></g><g transform="translate(0,0) matrix(1,0,0,1,50,90)"><g><g transform="translate(0,0) scale(4.1,0.44)"><g><path fill="#fff2cc" stroke="none" d="M 0 0 L 100 0 Q 100 0 100 0 L 100 100 Q 100 100 100 100 L 0 100 Q 0 100 0 100 L 0 0 Q 0 0 0 0 Z"/><g transform="scale(0.24390243902439027,2.272727272727273)"><path fill="none" stroke="none" d="M 0 0 L 409.99999999999994 0 Q 409.99999999999994 0 409.99999999999994 0 L 409.99999999999994 44 Q 409.99999999999994 44 409.99999999999994 44 L 0 44 Q 0 44 0 44 L 0 0 Q 0 0 0 0 Z"/><path fill="none" stroke="#990000" d="M 0 0 M 0 0 L 409.99999999999994 0 Q 409.99999999999994 0 409.99999999999994 0 L 409.99999999999994 44 Q 409.99999999999994 44 409.99999999999994 44 L 0 44 Q 0 44 0 44 L 0 0 Q 0 0 0 0 Z" stroke-miterlimit="10" stroke-width="2"/></g></g></g></g></g><g transform="scale(1,1) matrix(1,0,0,1,50,90) translate(8,8)"><text fill="#000000" stroke="none" font-family="Arial" font-size="12px" font-style="normal" font-weight="normal" text-decoration="none" x="0" y="11">Flyruter: Hashmap&lt;Flyrute&gt;</text><text fill="#000000" stroke="none" font-family="Arial" font-size="12px" font-style="normal" font-weight="normal" text-decoration="none" x="0" y="25">Passasjerregister: Hashmap&lt;Passasjer&gt;</text></g><g transform="translate(0,0) matrix(1,0,0,1,50,134)"><g><g transform="translate(0,0) scale(4.1,0.86)"><g><path fill="#fff2cc" stroke="none" d="M 0 0 L 100 0 Q 100 0 100 0 L 100 100 Q 100 100 100 100 L 0 100 Q 0 100 0 100 L 0 0 Q 0 0 0 0 Z"/><g transform="scale(0.24390243902439027,1.1627906976744187)"><path fill="none" stroke="none" d="M 0 0 L 409.99999999999994 0 Q 409.99999999999994 0 409.99999999999994 0 L 409.99999999999994 86 Q 409.99999999999994 86 409.99999999999994 86 L 0 86 Q 0 86 0 86 L 0 0 Q 0 0 0 0 Z"/><path fill="none" stroke="#990000" d="M 0 0 M 0 0 L 409.99999999999994 0 Q 409.99999999999994 0 409.99999999999994 0 L 409.99999999999994 86 Q 409.99999999999994 86 409.99999999999994 86 L 0 86 Q 0 86 0 86 L 0 0 Q 0 0 0 0 Z" stroke-miterlimit="10" stroke-width="2"/></g></g></g></g></g><g transform="scale(1,1) matrix(1,0,0,1,50,134) translate(8,8)"><text fill="#000000" stroke="none" font-family="Arial" font-size="12px" font-style="normal" font-weight="normal" text-decoration="none" x="0" y="11">FinnFlyrute(fraBy,Tilby):Flyrute</text><text fill="#000000" stroke="none" font-family="Arial" font-size="12px" font-style="normal" font-weight="normal" text-decoration="none" x="0" y="25">FinnPassasjer(navn, fødselsdato): Passasjer</text><text fill="#000000" stroke="none" font-family="Arial" font-size="12px" font-style="normal" font-weight="normal" text-decoration="none" x="0" y="39">OpprettPassasjer</text><text fill="#000000" stroke="none" font-family="Arial" font-size="12px" font-style="normal" font-weight="normal" text-decoration="none" x="94" y="39">(navn, fødselsdato, adresse, tlf, kredittkortnr): Passasjer</text><text fill="#000000" stroke="none" font-family="Arial" font-size="12px" font-style="normal" font-weight="normal" text-decoration="none" x="0" y="53">leggInnPassasjerReg(Passasjer): boolean</text><text fill="#000000" stroke="none" font-family="Arial" font-size="12px" font-style="normal" font-weight="normal" text-decoration="none" x="0" y="67">OpprettBestilling(flyrute FR, Sete S, Pris, Passasjer P): boolean</text></g><g transform="translate(0,0) matrix(1,0,0,1,614,67)"><g><g transform="translate(0,0) scale(3,0.3)"><g><path fill="#fff2cc" stroke="none" d="M 0 0 L 100 0 Q 100 0 100 0 L 100 100 Q 100 100 100 100 L 0 100 Q 0 100 0 100 L 0 0 Q 0 0 0 0 Z"/><g transform="scale(0.3333333333333333,3.3333333333333335)"><path fill="none" stroke="none" d="M 0 0 L 300 0 Q 300 0 300 0 L 300 30 Q 300 30 300 30 L 0 30 Q 0 30 0 30 L 0 0 Q 0 0 0 0 Z"/><path fill="none" stroke="#990000" d="M 0 0 M 0 0 L 300 0 Q 300 0 300 0 L 300 30 Q 300 30 300 30 L 0 30 Q 0 30 0 30 L 0 0 Q 0 0 0 0 Z" stroke-miterlimit="10" stroke-width="2"/></g></g></g></g></g><g transform="scale(1,1) matrix(1,0,0,1,614,67) translate(8,8)"><text fill="#000000" stroke="none" font-family="Arial" font-size="12px" font-style="normal" font-weight="bold" text-decoration="none" x="122" y="11">Flyrute</text></g><g transform="translate(0,0) matrix(1,0,0,1,614,97)"><g><g transform="translate(0,0) scale(3,0.86)"><g><path fill="#fff2cc" stroke="none" d="M 0 0 L 100 0 Q 100 0 100 0 L 100 100 Q 100 100 100 100 L 0 100 Q 0 100 0 100 L 0 0 Q 0 0 0 0 Z"/><g transform="scale(0.3333333333333333,1.1627906976744187)"><path fill="none" stroke="none" d="M 0 0 L 300 0 Q 300 0 300 0 L 300 86 Q 300 86 300 86 L 0 86 Q 0 86 0 86 L 0 0 Q 0 0 0 0 Z"/><path fill="none" stroke="#990000" d="M 0 0 M 0 0 L 300 0 Q 300 0 300 0 L 300 86 Q 300 86 300 86 L 0 86 Q 0 86 0 86 L 0 0 Q 0 0 0 0 Z" stroke-miterlimit="10" stroke-width="2"/></g></g></g></g></g><g transform="scale(1,1) matrix(1,0,0,1,614,97) translate(8,8)"><text fill="#000000" stroke="none" font-family="Arial" font-size="12px" font-style="normal" font-weight="normal" text-decoration="none" x="0" y="11">Rutenummer:String</text><text fill="#000000" stroke="none" font-family="Arial" font-size="12px" font-style="normal" font-weight="normal" text-decoration="none" x="0" y="25">Avreise:String</text><text fill="#000000" stroke="none" font-family="Arial" font-size="12px" font-style="normal" font-weight="normal" text-decoration="none" x="0" y="39">Destinasjon:String</text><text fill="#000000" stroke="none" font-family="Arial" font-size="12px" font-style="normal" font-weight="normal" text-decoration="none" x="0" y="53">Avreisedato: date</text><text fill="#000000" stroke="none" font-family="Arial" font-size="12px" font-style="normal" font-weight="normal" text-decoration="none" x="0" y="67">Seter: Hashmap&lt;sete&gt;</text></g><g transform="translate(0,0) matrix(1,0,0,1,614,183)"><g><g transform="translate(0,0) scale(3,0.3)"><g><path fill="#fff2cc" stroke="none" d="M 0 0 L 100 0 Q 100 0 100 0 L 100 100 Q 100 100 100 100 L 0 100 Q 0 100 0 100 L 0 0 Q 0 0 0 0 Z"/><g transform="scale(0.3333333333333333,3.3333333333333335)"><path fill="none" stroke="none" d="M 0 0 L 300 0 Q 300 0 300 0 L 300 30 Q 300 30 300 30 L 0 30 Q 0 30 0 30 L 0 0 Q 0 0 0 0 Z"/><path fill="none" stroke="#990000" d="M 0 0 M 0 0 L 300 0 Q 300 0 300 0 L 300 30 Q 300 30 300 30 L 0 30 Q 0 30 0 30 L 0 0 Q 0 0 0 0 Z" stroke-miterlimit="10" stroke-width="2"/></g></g></g></g></g><g transform="scale(1,1) matrix(1,0,0,1,614,183) translate(8,8)"><text fill="#000000" stroke="none" font-family="Arial" font-size="12px" font-style="normal" font-weight="normal" text-decoration="none" x="0" y="11">FinnLedigSete(avreisedato,setetype):Sete</text></g><g transform="translate(0,0) matrix(1,0,0,1,1120,67)"><g><g transform="translate(0,0) scale(2.1,0.3)"><g><path fill="#fff2cc" stroke="none" d="M 0 0 L 100 0 Q 100 0 100 0 L 100 100 Q 100 100 100 100 L 0 100 Q 0 100 0 100 L 0 0 Q 0 0 0 0 Z"/><g transform="scale(0.47619047619047616,3.3333333333333335)"><path fill="none" stroke="none" d="M 0 0 L 210 0 Q 210 0 210 0 L 210 30 Q 210 30 210 30 L 0 30 Q 0 30 0 30 L 0 0 Q 0 0 0 0 Z"/><path fill="none" stroke="#990000" d="M 0 0 M 0 0 L 210 0 Q 210 0 210 0 L 210 30 Q 210 30 210 30 L 0 30 Q 0 30 0 30 L 0 0 Q 0 0 0 0 Z" stroke-miterlimit="10" stroke-width="2"/></g></g></g></g></g><g transform="scale(1,1) matrix(1,0,0,1,1120,67) translate(8,8)"><text fill="#000000" stroke="none" font-family="Arial" font-size="12px" font-style="normal" font-weight="bold" text-decoration="none" x="84.00000000000001" y="11">Sete</text></g><g transform="translate(0,0) matrix(1,0,0,1,1120,97)"><g><g transform="translate(0,0) scale(2.1,0.72)"><g><path fill="#fff2cc" stroke="none" d="M 0 0 L 100 0 Q 100 0 100 0 L 100 100 Q 100 100 100 100 L 0 100 Q 0 100 0 100 L 0 0 Q 0 0 0 0 Z"/><g transform="scale(0.47619047619047616,1.3888888888888888)"><path fill="none" stroke="none" d="M 0 0 L 210 0 Q 210 0 210 0 L 210 72 Q 210 72 210 72 L 0 72 Q 0 72 0 72 L 0 0 Q 0 0 0 0 Z"/><path fill="none" stroke="#990000" d="M 0 0 M 0 0 L 210 0 Q 210 0 210 0 L 210 72 Q 210 72 210 72 L 0 72 Q 0 72 0 72 L 0 0 Q 0 0 0 0 Z" stroke-miterlimit="10" stroke-width="2"/></g></g></g></g></g><g transform="scale(1,1) matrix(1,0,0,1,1120,97) translate(8,8)"><text fill="#000000" stroke="none" font-family="Arial" font-size="12px" font-style="normal" font-weight="normal" text-decoration="none" x="0" y="11">Setetype:String</text><text fill="#000000" stroke="none" font-family="Arial" font-size="12px" font-style="normal" font-weight="normal" text-decoration="none" x="0" y="25">Pris:double</text><text fill="#000000" stroke="none" font-family="Arial" font-size="12px" font-style="normal" font-weight="normal" text-decoration="none" x="0" y="39">Setenummer:integer</text><text fill="#000000" stroke="none" font-family="Arial" font-size="12px" font-style="normal" font-weight="normal" text-decoration="none" x="0" y="53">Ledig: boolean</text></g><g transform="translate(0,0) matrix(1,0,0,1,1120,169)"><g><g transform="translate(0,0) scale(2.1,0.32)"><g><path fill="#fff2cc" stroke="none" d="M 0 0 L 100 0 Q 100 0 100 0 L 100 100 Q 100 100 100 100 L 0 100 Q 0 100 0 100 L 0 0 Q 0 0 0 0 Z"/><g transform="scale(0.47619047619047616,3.125)"><path fill="none" stroke="none" d="M 0 0 L 210 0 Q 210 0 210 0 L 210 32 Q 210 32 210 32 L 0 32 Q 0 32 0 32 L 0 0 Q 0 0 0 0 Z"/><path fill="none" stroke="#990000" d="M 0 0 M 0 0 L 210 0 Q 210 0 210 0 L 210 32 Q 210 32 210 32 L 0 32 Q 0 32 0 32 L 0 0 Q 0 0 0 0 Z" stroke-miterlimit="10" stroke-width="2"/></g></g></g></g></g><g transform="scale(1,1) matrix(1,0,0,1,1120,169) translate(8,8)"><text fill="#000000" stroke="none" font-family="Arial" font-size="12px" font-style="normal" font-weight="normal" text-decoration="none" x="0" y="11">BeregnPris(avreisedato):integer</text></g><g transform="translate(0,0) matrix(1,0,0,1,105,353)"><g><g transform="translate(0,0) scale(3,0.3)"><g><path fill="#fff2cc" stroke="none" d="M 0 0 L 100 0 Q 100 0 100 0 L 100 100 Q 100 100 100 100 L 0 100 Q 0 100 0 100 L 0 0 Q 0 0 0 0 Z"/><g transform="scale(0.3333333333333333,3.3333333333333335)"><path fill="none" stroke="none" d="M 0 0 L 300 0 Q 300 0 300 0 L 300 30 Q 300 30 300 30 L 0 30 Q 0 30 0 30 L 0 0 Q 0 0 0 0 Z"/><path fill="none" stroke="#990000" d="M 0 0 M 0 0 L 300 0 Q 300 0 300 0 L 300 30 Q 300 30 300 30 L 0 30 Q 0 30 0 30 L 0 0 Q 0 0 0 0 Z" stroke-miterlimit="10" stroke-width="2"/></g></g></g></g></g><g transform="scale(1,1) matrix(1,0,0,1,105,353) translate(8,8)"><text fill="#000000" stroke="none" font-family="Arial" font-size="12px" font-style="normal" font-weight="bold" text-decoration="none" x="113" y="11">Passasjer</text></g><g transform="translate(0,0) matrix(1,0,0,1,105,383)"><g><g transform="translate(0,0) scale(3,1)"><g><path fill="#fff2cc" stroke="none" d="M 0 0 L 100 0 Q 100 0 100 0 L 100 100 Q 100 100 100 100 L 0 100 Q 0 100 0 100 L 0 0 Q 0 0 0 0 Z"/><g transform="scale(0.3333333333333333,1)"><path fill="none" stroke="none" d="M 0 0 L 300 0 Q 300 0 300 0 L 300 100 Q 300 100 300 100 L 0 100 Q 0 100 0 100 L 0 0 Q 0 0 0 0 Z"/><path fill="none" stroke="#990000" d="M 0 0 M 0 0 L 300 0 Q 300 0 300 0 L 300 100 Q 300 100 300 100 L 0 100 Q 0 100 0 100 L 0 0 Q 0 0 0 0 Z" stroke-miterlimit="10" stroke-width="2"/></g></g></g></g></g><g transform="scale(1,1) matrix(1,0,0,1,105,383) translate(8,8)"><text fill="#000000" stroke="none" font-family="Arial" font-size="12px" font-style="normal" font-weight="normal" text-decoration="none" x="0" y="11">Navn:String</text><text fill="#000000" stroke="none" font-family="Arial" font-size="12px" font-style="normal" font-weight="normal" text-decoration="none" x="0" y="25">Fødselsdato:date</text><text fill="#000000" stroke="none" font-family="Arial" font-size="12px" font-style="normal" font-weight="normal" text-decoration="none" x="0" y="39">asresse:String</text><text fill="#000000" stroke="none" font-family="Arial" font-size="12px" font-style="normal" font-weight="normal" text-decoration="none" x="0" y="53">Telefonnummer:integer</text><text fill="#000000" stroke="none" font-family="Arial" font-size="12px" font-style="normal" font-weight="normal" text-decoration="none" x="0" y="67">Kreditkortnummer:long</text><text fill="#000000" stroke="none" font-family="Arial" font-size="12px" font-style="normal" font-weight="normal" text-decoration="none" x="0" y="81">Bestillingsliste: Hashmap&lt;bestilling&gt;</text></g><g transform="translate(0,0) matrix(1,0,0,1,105,483)"><g><g transform="translate(0,0) scale(3,0.3)"><g><path fill="#fff2cc" stroke="none" d="M 0 0 L 100 0 Q 100 0 100 0 L 100 100 Q 100 100 100 100 L 0 100 Q 0 100 0 100 L 0 0 Q 0 0 0 0 Z"/><g transform="scale(0.3333333333333333,3.3333333333333335)"><path fill="none" stroke="none" d="M 0 0 L 300 0 Q 300 0 300 0 L 300 30 Q 300 30 300 30 L 0 30 Q 0 30 0 30 L 0 0 Q 0 0 0 0 Z"/><path fill="none" stroke="#990000" d="M 0 0 M 0 0 L 300 0 Q 300 0 300 0 L 300 30 Q 300 30 300 30 L 0 30 Q 0 30 0 30 L 0 0 Q 0 0 0 0 Z" stroke-miterlimit="10" stroke-width="2"/></g></g></g></g></g><g transform="scale(1,1) matrix(1,0,0,1,105,483) translate(8,8)"><text fill="#000000" stroke="none" font-family="Arial" font-size="12px" font-style="normal" font-weight="normal" text-decoration="none" x="0" y="11">settInfo(</text><text fill="#000000" stroke="none" font-family="Arial" font-size="12px" font-style="normal" font-weight="normal" text-decoration="none" x="43" y="11">navn, fødselsdato, adresse, tlf, kredittkortnr</text><text fill="#000000" stroke="none" font-family="Arial" font-size="12px" font-style="normal" font-weight="normal" text-decoration="none" x="274" y="11">)</text></g><g transform="translate(0,0) matrix(1,0,0,1,649,367)"><g><g transform="translate(0,0) scale(2.3,0.3)"><g><path fill="#fff2cc" stroke="none" d="M 0 0 L 100 0 Q 100 0 100 0 L 100 100 Q 100 100 100 100 L 0 100 Q 0 100 0 100 L 0 0 Q 0 0 0 0 Z"/><g transform="scale(0.4347826086956522,3.3333333333333335)"><path fill="none" stroke="none" d="M 0 0 L 229.99999999999997 0 Q 229.99999999999997 0 229.99999999999997 0 L 229.99999999999997 30 Q 229.99999999999997 30 229.99999999999997 30 L 0 30 Q 0 30 0 30 L 0 0 Q 0 0 0 0 Z"/><path fill="none" stroke="#990000" d="M 0 0 M 0 0 L 229.99999999999997 0 Q 229.99999999999997 0 229.99999999999997 0 L 229.99999999999997 30 Q 229.99999999999997 30 229.99999999999997 30 L 0 30 Q 0 30 0 30 L 0 0 Q 0 0 0 0 Z" stroke-miterlimit="10" stroke-width="2"/></g></g></g></g></g><g transform="scale(1,1) matrix(1,0,0,1,649,367) translate(8,8)"><text fill="#000000" stroke="none" font-family="Arial" font-size="12px" font-style="normal" font-weight="bold" text-decoration="none" x="80.5" y="11">Bestilling</text></g><g transform="translate(0,0) matrix(1,0,0,1,649,397)"><g><g transform="translate(0,0) scale(2.3,0.72)"><g><path fill="#fff2cc" stroke="none" d="M 0 0 L 100 0 Q 100 0 100 0 L 100 100 Q 100 100 100 100 L 0 100 Q 0 100 0 100 L 0 0 Q 0 0 0 0 Z"/><g transform="scale(0.4347826086956522,1.3888888888888888)"><path fill="none" stroke="none" d="M 0 0 L 229.99999999999997 0 Q 229.99999999999997 0 229.99999999999997 0 L 229.99999999999997 72 Q 229.99999999999997 72 229.99999999999997 72 L 0 72 Q 0 72 0 72 L 0 0 Q 0 0 0 0 Z"/><path fill="none" stroke="#990000" d="M 0 0 M 0 0 L 229.99999999999997 0 Q 229.99999999999997 0 229.99999999999997 0 L 229.99999999999997 72 Q 229.99999999999997 72 229.99999999999997 72 L 0 72 Q 0 72 0 72 L 0 0 Q 0 0 0 0 Z" stroke-miterlimit="10" stroke-width="2"/></g></g></g></g></g><g transform="scale(1,1) matrix(1,0,0,1,649,397) translate(8,8)"><text fill="#000000" stroke="none" font-family="Arial" font-size="12px" font-style="normal" font-weight="normal" text-decoration="none" x="0" y="11">Passasjer:Passasjer</text><text fill="#000000" stroke="none" font-family="Arial" font-size="12px" font-style="normal" font-weight="normal" text-decoration="none" x="0" y="25">Flyrute: Flyrute</text><text fill="#000000" stroke="none" font-family="Arial" font-size="12px" font-style="normal" font-weight="normal" text-decoration="none" x="0" y="39">ReserverteSeter: Hashmap&lt;sete&gt;</text><text fill="#000000" stroke="none" font-family="Arial" font-size="12px" font-style="normal" font-weight="normal" text-decoration="none" x="0" y="53">AntallPerson:int</text><text fill="#000000" stroke="none" font-family="Arial" font-size="12px" font-style="normal" font-weight="normal" text-decoration="none" x="86" y="53">&#160;</text></g><g transform="translate(0,0) matrix(1,0,0,1,649,469)"><g><g transform="translate(0,0) scale(2.3,0.3)"><g><path fill="#fff2cc" stroke="none" d="M 0 0 L 100 0 Q 100 0 100 0 L 100 100 Q 100 100 100 100 L 0 100 Q 0 100 0 100 L 0 0 Q 0 0 0 0 Z"/><g transform="scale(0.4347826086956522,3.3333333333333335)"><path fill="none" stroke="none" d="M 0 0 L 229.99999999999997 0 Q 229.99999999999997 0 229.99999999999997 0 L 229.99999999999997 30 Q 229.99999999999997 30 229.99999999999997 30 L 0 30 Q 0 30 0 30 L 0 0 Q 0 0 0 0 Z"/><path fill="none" stroke="#990000" d="M 0 0 M 0 0 L 229.99999999999997 0 Q 229.99999999999997 0 229.99999999999997 0 L 229.99999999999997 30 Q 229.99999999999997 30 229.99999999999997 30 L 0 30 Q 0 30 0 30 L 0 0 Q 0 0 0 0 Z" stroke-miterlimit="10" stroke-width="2"/></g></g></g></g></g><g transform="scale(1,1) matrix(1,0,0,1,649,469) translate(8,8)"><text fill="#000000" stroke="none" font-family="Arial" font-size="12px" font-style="normal" font-weight="normal" text-decoration="none" x="105.5" y="11">&#160;</text></g><g transform="matrix(1,0,0,1,910,136)"><g transform="translate(0,0)"><g transform="translate(-917,-131) translate(7,-5) matrix(1,0,0,1,0,0)"><g><path fill="none" stroke="#990000" d="M 914 140 L 982.6882607182175 140 L 1051.376521436435 140 L 1120.0647821546527 140" stroke-miterlimit="10"/></g></g></g></g><g transform="scale(1,1) matrix(1,0,0,1,917,131) translate(5.999999999999998,-13)"><g><rect fill="#FFFFFF" stroke="none" x="0.5" y="-3" width="11" height="18"/></g><text fill="#000000" stroke="none" font-family="Arial" font-size="12px" font-style="normal" font-weight="normal" text-decoration="none" x="2.5" y="11">1</text></g><g transform="scale(1,1) matrix(1,0,0,1,917,131) translate(176.56478215465268,-13)"><g><rect fill="#FFFFFF" stroke="none" x="0.5" y="-3" width="22" height="18"/></g><text fill="#000000" stroke="none" font-family="Arial" font-size="12px" font-style="normal" font-weight="normal" text-decoration="none" x="2.5" y="11">0..*</text></g><g transform="matrix(1,0,0,1,456,136)"><g transform="translate(0,0)"><g transform="translate(-739,14) translate(283,-150) matrix(1,0,0,1,0,0)"><g><path fill="none" stroke="#990000" d="M 614 140 L 562.6666666666666 140 L 511.3333333333333 140 L 460 140" stroke-miterlimit="10"/></g></g></g></g><g transform="scale(1,1) matrix(1,0,0,1,739,-14) translate(-151.5,132)"><g><rect fill="#FFFFFF" stroke="none" x="0.5" y="-3" width="22" height="18"/></g><text fill="#000000" stroke="none" font-family="Arial" font-size="12px" font-style="normal" font-weight="normal" text-decoration="none" x="2.5" y="11">0..*</text></g><g transform="scale(1,1) matrix(1,0,0,1,739,-14) translate(-270,132)"><g><rect fill="#FFFFFF" stroke="none" x="0.5" y="-3" width="11" height="18"/></g><text fill="#000000" stroke="none" font-family="Arial" font-size="12px" font-style="normal" font-weight="normal" text-decoration="none" x="2.5" y="11">1</text></g><g transform="matrix(1,0,0,1,401,429)"><g transform="translate(0,0)"><g transform="translate(-378,-368) translate(-23,-61) matrix(1,0,0,1,0,0)"><g><path fill="none" stroke="#990000" d="M 405 433 L 486.33333333333337 433 L 567.6666666666666 433 L 649 433" stroke-miterlimit="10"/></g></g></g></g><g transform="scale(1,1) matrix(1,0,0,1,378,368) translate(36,43)"><g><rect fill="#FFFFFF" stroke="none" x="0.5" y="-3" width="11" height="18"/></g><text fill="#000000" stroke="none" font-family="Arial" font-size="12px" font-style="normal" font-weight="normal" text-decoration="none" x="2.5" y="11">1</text></g><g transform="scale(1,1) matrix(1,0,0,1,378,368) translate(244.5,43)"><g><rect fill="#FFFFFF" stroke="none" x="0.5" y="-3" width="22" height="18"/></g><text fill="#000000" stroke="none" font-family="Arial" font-size="12px" font-style="normal" font-weight="normal" text-decoration="none" x="2.5" y="11">0..*</text></g><g transform="matrix(1,0,0,1,875,197)"><g transform="translate(0,0)"><g transform="translate(-955,-378) translate(80,181) matrix(1,0,0,1,0,0)"><g><path fill="none" stroke="#990000" d="M 879 433 L 1225 433 L 1225 201" stroke-miterlimit="10"/></g></g></g></g><g transform="scale(1,1) matrix(1,0,0,1,955,378) translate(-72.5,33)"><g><rect fill="#FFFFFF" stroke="none" x="0.5" y="-3" width="22" height="18"/></g><text fill="#000000" stroke="none" font-family="Arial" font-size="12px" font-style="normal" font-weight="normal" text-decoration="none" x="2.5" y="11">0..*</text></g><g transform="scale(1,1) matrix(1,0,0,1,955,378) translate(243.5,-169)"><g><rect fill="#FFFFFF" stroke="none" x="0.5" y="-3" width="22" height="18"/></g><text fill="#000000" stroke="none" font-family="Arial" font-size="12px" font-style="normal" font-weight="normal" text-decoration="none" x="2.5" y="11">1..*</text></g><g transform="matrix(1,0,0,1,760,209)"><g transform="translate(0,0)"><g transform="translate(-723,-272) translate(-37,63) matrix(1,0,0,1,0,0)"><g><path fill="none" stroke="#990000" d="M 764 213 L 764 264.3333333333333 L 764 315.6666666666667 L 764 367" stroke-miterlimit="10"/></g></g></g></g><g transform="scale(1,1) matrix(1,0,0,1,723,272) translate(20,-51)"><g><rect fill="#FFFFFF" stroke="none" x="0.5" y="-3" width="11" height="18"/></g><text fill="#000000" stroke="none" font-family="Arial" font-size="12px" font-style="normal" font-weight="normal" text-decoration="none" x="2.5" y="11">1</text></g><g transform="scale(1,1) matrix(1,0,0,1,723,272) translate(14.5,73)"><g><rect fill="#FFFFFF" stroke="none" x="0.5" y="-3" width="22" height="18"/></g><text fill="#000000" stroke="none" font-family="Arial" font-size="12px" font-style="normal" font-weight="normal" text-decoration="none" x="2.5" y="11">0..*</text></g><g transform="matrix(1,0,0,1,251,216)"><g transform="translate(0,0)"><g transform="translate(-190,-298) translate(-61,82) matrix(1,0,0,1,0,0)"><g><path fill="none" stroke="#990000" d="M 255 220 L 255 264.3333333333333 L 255 308.6666666666667 L 255 353" stroke-miterlimit="10"/></g></g></g></g><g transform="scale(1,1) matrix(1,0,0,1,190,298) translate(44,-70)"><g><rect fill="#FFFFFF" stroke="none" x="0.5" y="-3" width="11" height="18"/></g><text fill="#000000" stroke="none" font-family="Arial" font-size="12px" font-style="normal" font-weight="normal" text-decoration="none" x="2.5" y="11">1</text></g><g transform="scale(1,1) matrix(1,0,0,1,190,298) translate(38.5,33)"><g><rect fill="#FFFFFF" stroke="none" x="0.5" y="-3" width="22" height="18"/></g><text fill="#000000" stroke="none" font-family="Arial" font-size="12px" font-style="normal" font-weight="normal" text-decoration="none" x="2.5" y="11">0..*</text></g></g></svg>